<svg width="679" height="308" viewBox="0 0 679 308" fill="none" xmlns="http://www.w3.org/2000/svg">
<g filter="url(#filter0_d_9_154)">
<path d="M268.82 72.92C268.82 74.74 269.73 76.17 271.55 77.21C273.457 78.25 276.403 79.3767 280.39 80.59C285.157 82.15 289.057 83.6667 292.09 85.14C295.21 86.6133 297.897 88.91 300.15 92.03C302.49 95.15 303.66 99.2233 303.66 104.25C303.66 120.37 293.173 128.43 272.2 128.43C268.733 128.43 264.487 128.127 259.46 127.52C254.52 126.913 250.013 126.133 245.94 125.18C246.113 123.36 246.46 120.717 246.98 117.25C247.587 113.697 248.15 111.053 248.67 109.32C251.703 109.753 256.253 110.273 262.32 110.88C268.473 111.487 273.11 111.79 276.23 111.79C278.05 111.79 279.133 111.66 279.48 111.4C280 111.053 280.39 110.49 280.65 109.71C280.997 108.843 281.17 108.107 281.17 107.5C281.17 105.767 280.347 104.467 278.7 103.6C277.053 102.647 274.237 101.52 270.25 100.22C265.483 98.7467 261.54 97.23 258.42 95.67C255.3 94.11 252.57 91.6833 250.23 88.39C247.89 85.0967 246.72 80.7633 246.72 75.39C246.72 71.5767 247.587 67.85 249.32 64.21C251.053 60.4833 252.83 57.97 254.65 56.67C256.037 55.7167 258.897 54.8067 263.23 53.94C267.563 53.0733 271.637 52.64 275.45 52.64C285.157 52.64 293.087 53.55 299.24 55.37C299.153 57.1033 298.85 59.4867 298.33 62.52C297.897 65.5533 297.42 68.3267 296.9 70.84L293.91 70.71C282.643 69.93 275.45 69.54 272.33 69.54C271.03 69.54 270.293 69.5833 270.12 69.67C269.773 69.8433 269.47 70.2333 269.21 70.84C268.95 71.4467 268.82 72.14 268.82 72.92ZM358.251 127H334.851V69.15H313.921V52.9H379.181V69.15H358.251V127ZM462.456 52.9V94.37C462.456 102.95 461.503 109.667 459.596 114.52C457.776 119.287 454.309 122.797 449.196 125.05C444.083 127.303 436.629 128.43 426.836 128.43C419.643 128.43 413.576 127.693 408.636 126.22C403.696 124.66 399.753 121.757 396.806 117.51C393.946 113.263 392.516 107.283 392.516 99.57V52.9H415.916V94.63C415.916 99.2233 416.133 102.733 416.566 105.16C417.086 107.5 418.213 109.32 419.946 110.62C421.679 111.833 424.323 112.44 427.876 112.44C430.043 112.44 432.079 112.223 433.986 111.79C435.893 111.357 437.193 110.707 437.886 109.84C438.666 108.8 439.056 105.03 439.056 98.53V52.9H462.456ZM511.197 52.51C518.217 52.51 524.154 53.16 529.007 54.46C533.86 55.76 537.717 58.2733 540.577 62C543.524 65.64 544.997 70.8833 544.997 77.73C544.997 80.7633 544.52 83.8833 543.567 87.09C542.7 90.21 541.574 92.94 540.187 95.28C538.887 97.62 537.717 99.1367 536.677 99.83C535.464 100.697 532.777 101.39 528.617 101.91C524.457 102.343 519.56 102.56 513.927 102.56C511.934 102.56 508.857 102.473 504.697 102.3V127H481.297V52.9C490.397 52.64 500.364 52.51 511.197 52.51ZM520.947 85.92C521.814 84.7933 522.247 82.54 522.247 79.16C522.247 74.74 521.294 71.62 519.387 69.8C517.567 67.98 514.36 67.07 509.767 67.07C508.207 67.07 506.517 67.2 504.697 67.46V87.22C505.564 87.3067 507.254 87.35 509.767 87.35C516.44 87.35 520.167 86.8733 520.947 85.92ZM559.909 52.9H583.309V127H559.909V52.9ZM628.969 52.9C639.109 52.9 647.385 53.8533 653.799 55.76C660.299 57.6667 665.325 61.2633 668.879 66.55C672.519 71.8367 674.339 79.42 674.339 89.3C674.339 99.8733 672.432 107.933 668.619 113.48C664.805 118.94 659.692 122.58 653.279 124.4C646.865 126.133 638.762 127 628.969 127H602.969V52.9H628.969ZM646.389 109.32C647.429 108.28 648.165 105.593 648.599 101.26C649.032 96.9267 649.249 92.94 649.249 89.3C649.249 84.7067 648.902 81.0667 648.209 78.38C647.602 75.6067 646.475 73.3967 644.829 71.75C642.229 68.89 637.765 67.46 631.439 67.46C630.312 67.46 628.622 67.5467 626.369 67.72V110.88C627.842 111.053 630.139 111.14 633.259 111.14C636.465 111.14 639.282 111.01 641.709 110.75C644.222 110.403 645.782 109.927 646.389 109.32Z" fill="#CE2A22"/>
</g>
<g filter="url(#filter1_d_9_154)">
<path d="M269.462 174.672C269.462 176.534 270.393 177.997 272.255 179.061C274.206 180.125 277.22 181.278 281.299 182.519C286.176 184.115 290.166 185.667 293.269 187.174C296.461 188.681 299.21 191.031 301.515 194.223C303.909 197.415 305.106 201.582 305.106 206.725C305.106 223.217 294.377 231.463 272.92 231.463C269.373 231.463 265.029 231.153 259.886 230.532C254.832 229.911 250.221 229.113 246.054 228.138C246.231 226.276 246.586 223.572 247.118 220.025C247.739 216.39 248.315 213.685 248.847 211.912C251.95 212.355 256.605 212.887 262.812 213.508C269.107 214.129 273.851 214.439 277.043 214.439C278.905 214.439 280.013 214.306 280.368 214.04C280.9 213.685 281.299 213.109 281.565 212.311C281.92 211.424 282.097 210.671 282.097 210.05C282.097 208.277 281.255 206.947 279.57 206.06C277.885 205.085 275.004 203.932 270.925 202.602C266.048 201.095 262.014 199.543 258.822 197.947C255.63 196.351 252.837 193.868 250.443 190.499C248.049 187.13 246.852 182.696 246.852 177.199C246.852 173.298 247.739 169.485 249.512 165.761C251.285 161.948 253.103 159.377 254.965 158.047C256.384 157.072 259.31 156.141 263.743 155.254C268.176 154.367 272.344 153.924 276.245 153.924C286.176 153.924 294.289 154.855 300.584 156.717C300.495 158.49 300.185 160.929 299.653 164.032C299.21 167.135 298.722 169.973 298.19 172.544L295.131 172.411C283.604 171.613 276.245 171.214 273.053 171.214C271.723 171.214 270.969 171.258 270.792 171.347C270.437 171.524 270.127 171.923 269.861 172.544C269.595 173.165 269.462 173.874 269.462 174.672ZM447.155 230H424.811L423.082 188.238C422.816 179.992 422.506 173.741 422.151 169.485H421.752C420.688 172.854 419.447 178.086 418.028 185.179L417.363 188.504L408.186 230H385.842L378.128 192.627L376.798 185.977C374.936 177.731 373.651 172.234 372.941 169.485H372.542C372.188 173.918 371.877 181.145 371.611 191.164C371.523 191.785 371.478 192.76 371.478 194.09L370.281 230H347.804L350.996 154.19H389.034L395.551 186.908L397.147 195.686C397.857 192.937 398.522 189.878 399.142 186.509L405.26 154.19H444.096L447.155 230ZM561.22 230H536.083L531.561 210.848C531.384 210.139 531.074 208.942 530.63 207.257C530.276 205.484 529.832 204.198 529.3 203.4C528.768 202.513 528.015 201.937 527.039 201.671C524.557 201.76 520.921 201.804 516.133 201.804V230H492.193V154.855C502.922 154.057 512.941 153.658 522.251 153.658C530.675 153.658 537.502 154.367 542.733 155.786C547.965 157.116 551.866 159.466 554.437 162.835C557.097 166.116 558.427 170.638 558.427 176.401C558.427 181.81 557.186 186.066 554.703 189.169C552.221 192.184 548.231 194.001 542.733 194.622V195.42C545.837 195.686 548.408 196.706 550.447 198.479C552.575 200.164 553.994 202.336 554.703 204.996L561.22 230ZM516.133 186.775C516.931 186.864 518.483 186.908 520.788 186.908C527.616 186.908 531.606 186.332 532.758 185.179C533.822 184.115 534.354 181.632 534.354 177.731C534.354 174.096 533.379 171.613 531.428 170.283C529.566 168.953 526.463 168.288 522.118 168.288C521.143 168.288 519.148 168.377 516.133 168.554V186.775ZM642.413 230H618.473V170.815H597.06V154.19H663.826V170.815H642.413V230Z" fill="#CE2A22"/>
</g>
<g filter="url(#filter2_d_9_154)">
<line x1="235.903" y1="238.202" x2="315.903" y2="153.202" stroke="#B51912" stroke-width="14"/>
</g>
<g filter="url(#filter3_d_9_154)">
<path fill-rule="evenodd" clip-rule="evenodd" d="M170.596 156.5C164.382 185.92 138.269 208 107 208C87.605 208 70.194 199.505 58.2845 186.034C82.0049 186.137 113.123 185.933 115 185.5C118 184.808 135 156.5 135 156.5H170.596ZM192.959 156.5H199.5C199.5 156.5 218 140.5 216.5 137C215 133.5 124.5 137 124.5 137L105.5 162.5L21.4999 161.5C22.4272 167.682 27.8257 182.347 30.8384 185.086C45.6695 211.868 74.2172 230 107 230C150.457 230 186.472 198.138 192.959 156.5ZM193.5 129C193.5 127.829 192.548 124.952 191.351 121.609C181.818 83.9034 147.668 56 107 56C61.4777 56 24.1215 90.9625 20.3187 135.5H11C11 135.5 2.49992 152.5 5.00006 155C6.71344 156.713 32.5712 156.313 59.809 155.892H59.8091C72.3164 155.698 85.1148 155.5 96 155.5C101 155.5 119 130.5 119 130.5C144.5 130.5 193.5 130.5 193.5 129ZM107 78C130.435 78 150.973 90.4016 162.409 109H107L88 135.5H42.4279C46.1464 103.134 73.638 78 107 78Z" fill="#CE2A22"/>
</g>
<defs>
<filter id="filter0_d_9_154" x="241.94" y="52.51" width="436.399" height="83.92" filterUnits="userSpaceOnUse" color-interpolation-filters="sRGB">
<feFlood flood-opacity="0" result="BackgroundImageFix"/>
<feColorMatrix in="SourceAlpha" type="matrix" values="0 0 0 0 0 0 0 0 0 0 0 0 0 0 0 0 0 0 127 0" result="hardAlpha"/>
<feOffset dy="4"/>
<feGaussianBlur stdDeviation="2"/>
<feComposite in2="hardAlpha" operator="out"/>
<feColorMatrix type="matrix" values="0 0 0 0 0 0 0 0 0 0 0 0 0 0 0 0 0 0 0.25 0"/>
<feBlend mode="normal" in2="BackgroundImageFix" result="effect1_dropShadow_9_154"/>
<feBlend mode="normal" in="SourceGraphic" in2="effect1_dropShadow_9_154" result="shape"/>
</filter>
<filter id="filter1_d_9_154" x="242.054" y="153.658" width="425.772" height="85.8051" filterUnits="userSpaceOnUse" color-interpolation-filters="sRGB">
<feFlood flood-opacity="0" result="BackgroundImageFix"/>
<feColorMatrix in="SourceAlpha" type="matrix" values="0 0 0 0 0 0 0 0 0 0 0 0 0 0 0 0 0 0 127 0" result="hardAlpha"/>
<feOffset dy="4"/>
<feGaussianBlur stdDeviation="2"/>
<feComposite in2="hardAlpha" operator="out"/>
<feColorMatrix type="matrix" values="0 0 0 0 0 0 0 0 0 0 0 0 0 0 0 0 0 0 0.25 0"/>
<feBlend mode="normal" in2="BackgroundImageFix" result="effect1_dropShadow_9_154"/>
<feBlend mode="normal" in="SourceGraphic" in2="effect1_dropShadow_9_154" result="shape"/>
</filter>
<filter id="filter2_d_9_154" x="226.805" y="148.405" width="98.1948" height="102.595" filterUnits="userSpaceOnUse" color-interpolation-filters="sRGB">
<feFlood flood-opacity="0" result="BackgroundImageFix"/>
<feColorMatrix in="SourceAlpha" type="matrix" values="0 0 0 0 0 0 0 0 0 0 0 0 0 0 0 0 0 0 127 0" result="hardAlpha"/>
<feOffset dy="4"/>
<feGaussianBlur stdDeviation="2"/>
<feComposite in2="hardAlpha" operator="out"/>
<feColorMatrix type="matrix" values="0 0 0 0 0 0 0 0 0 0 0 0 0 0 0 0 0 0 0.25 0"/>
<feBlend mode="normal" in2="BackgroundImageFix" result="effect1_dropShadow_9_154"/>
<feBlend mode="normal" in="SourceGraphic" in2="effect1_dropShadow_9_154" result="shape"/>
</filter>
<filter id="filter3_d_9_154" x="0.539795" y="56" width="220.047" height="182" filterUnits="userSpaceOnUse" color-interpolation-filters="sRGB">
<feFlood flood-opacity="0" result="BackgroundImageFix"/>
<feColorMatrix in="SourceAlpha" type="matrix" values="0 0 0 0 0 0 0 0 0 0 0 0 0 0 0 0 0 0 127 0" result="hardAlpha"/>
<feOffset dy="4"/>
<feGaussianBlur stdDeviation="2"/>
<feComposite in2="hardAlpha" operator="out"/>
<feColorMatrix type="matrix" values="0 0 0 0 0 0 0 0 0 0 0 0 0 0 0 0 0 0 0.25 0"/>
<feBlend mode="normal" in2="BackgroundImageFix" result="effect1_dropShadow_9_154"/>
<feBlend mode="normal" in="SourceGraphic" in2="effect1_dropShadow_9_154" result="shape"/>
</filter>
</defs>
</svg>
